<svg xmlns="http://www.w3.org/2000/svg" version="1.1" xmlns:xlink="http://www.w3.org/1999/xlink" width="512" height="512" x="0" y="0" viewBox="0 0 512 512" style="enable-background:new 0 0 512 512" xml:space="preserve" class=""><g><path d="M432.352 327.297c7.904-15.999 11.977-34.298 11.977-54.431 0-54.463-62.921-118.034-105.751-154.999a11.91 11.91 0 0 0 1.173-5.141V86.624c0-1.871-.443-3.636-1.21-5.216 18.643-17.91 28.333-44.087 31.719-54.884 1.693-5.396-.66-11.313-5.598-14.073l-10.877-6.074c-10.525-5.879-23.095-5.879-33.62 0l-14.356 8.018c-6.251 3.49-13.717 3.491-19.968 0l-14.356-8.018c-10.367-5.791-23.248-5.793-33.619 0l-10.88 6.075c-4.934 2.758-7.287 8.675-5.597 14.071 3.386 10.798 13.076 36.975 31.72 54.886a11.905 11.905 0 0 0-1.209 5.216v26.103c0 1.841.429 3.58 1.173 5.141-42.831 36.965-105.751 100.536-105.751 154.999 0 27.016 7.35 50.72 21.442 70a72.483 72.483 0 0 0-12.78 10.169l-42.271 42.271-2.949-2.949c-4.679-4.677-12.289-4.678-16.972.001L71.18 414.972c-4.677 4.678-4.678 12.291 0 16.972l74.576 74.574a11.919 11.919 0 0 0 8.486 3.517c3.205 0 6.219-1.248 8.484-3.515l22.615-22.614a12.032 12.032 0 0 0 1.535-1.881c3.069-4.656 2.557-10.996-1.536-15.089l-.832-.832 1.461-1.461c8.311-8.312 20.52-11.564 31.869-8.488l71.982 19.521a46.647 46.647 0 0 0 12.221 1.626c12.286 0 24.316-4.831 33.212-13.726l97.377-97.377c5.16-5.16 8.001-12.021 8.001-19.318s-2.842-14.157-8.001-19.317c-.091-.093-.186-.178-.278-.267zM235.241 23.876l9.45-5.277c6.158-3.439 13.811-3.438 19.967 0l14.356 8.018c10.525 5.879 23.095 5.879 33.62 0l14.356-8.018c6.251-3.489 13.717-3.49 19.968 0l9.449 5.276c-3.686 11.275-13.461 36.257-31.258 50.749h-35.142c-2.175-6.098-4.666-15.504-7.02-29.981a7 7 0 1 0-13.818 2.248c1.801 11.071 3.812 20.277 6.091 27.733h-8.762c-17.797-14.493-27.572-39.477-31.257-50.748zm90.51 64.748v22.103h-59.852V88.624zm-171.51 406.58-71.748-71.748 19.784-19.784 71.748 71.748zM422.73 356.297l-97.377 97.377c-8.311 8.312-20.521 11.564-31.868 8.488l-71.982-19.521c-16.176-4.386-33.583.251-45.433 12.101l-1.461 1.461-50.996-50.996 42.271-42.271c10.955-10.956 25.521-16.989 41.014-16.989s30.059 6.033 41.062 17.037c4.676 4.684 10.779 7.61 17.188 8.239l71.627 7.029c3.54.348 6.733 2.054 8.991 4.804s3.31 6.214 2.961 9.755c-.719 7.309-7.221 12.68-14.558 11.952l-53.17-5.227a7 7 0 0 0-1.369 13.933l53.17 5.227c.905.089 1.802.132 2.692.132 13.87 0 25.783-10.562 27.168-24.648a27.147 27.147 0 0 0-2.075-13.409l43.311-43.31c2.516-2.516 5.859-3.901 9.417-3.901s6.902 1.386 9.419 3.902c2.516 2.516 3.9 5.859 3.9 9.417s-1.386 6.902-3.902 9.418zm-2.507-35.855a27.473 27.473 0 0 0-6.911-.882c-7.297 0-14.157 2.843-19.317 8.002l-42.114 42.113a27.154 27.154 0 0 0-13.739-5.356l-71.628-7.029c-3.187-.312-6.258-1.803-8.703-4.253-13.6-13.601-31.681-21.09-50.914-21.09a71.963 71.963 0 0 0-25.464 4.633c-12.506-16.136-20.111-37.083-20.111-63.713 0-50.489 64.44-113.29 105.444-148.14h58.131c41.005 34.842 105.433 97.625 105.433 148.14-.001 18.503-3.676 34.261-10.107 47.575zm-91.178-56.068-.076-.105c-4.449-6.029-10.416-9.519-15.688-12.148-4.587-2.266-9.516-4.366-14.282-6.398-4.37-1.862-8.498-3.622-12.411-5.514-3.6-1.689-6.991-3.919-9.808-6.448a8.147 8.147 0 0 0-.14-.122c-3.416-2.907-5.313-6.836-5.205-10.778.098-3.537 1.785-6.651 4.88-9.005l.093-.072c4.133-3.254 9.701-5.051 16.53-5.34 10.825-.435 20.324 2.633 29.011 9.36a6.997 6.997 0 0 0 9.82-1.248 6.999 6.999 0 0 0-1.248-9.82c-8.428-6.527-17.754-10.485-27.828-11.821v-13.474a7 7 0 1 0-14 0v13.291c-8.223.889-15.241 3.577-20.899 8.016-6.463 4.935-10.139 11.938-10.353 19.729-.225 8.172 3.438 16.099 10.053 21.763 3.808 3.406 8.351 6.394 13.072 8.609 4.14 2.002 8.615 3.909 12.942 5.754 4.59 1.957 9.336 3.979 13.548 6.061 5.365 2.675 8.445 4.958 10.608 7.866 1.396 1.991 2.395 4.733 2.874 7.843.397 2.838-.532 6.053-3.027 10.445-3.388 6.014-12.452 8.198-19.806 8.237a7.718 7.718 0 0 0-.34.01c-12.245.661-24.523-2.938-33.7-9.87a7 7 0 1 0-8.44 11.17c9.38 7.086 21.211 11.452 33.467 12.515v12.682a7 7 0 1 0 14 0v-12.765c12.349-1.198 22.255-6.656 27.004-15.086 2.551-4.49 5.813-11.374 4.692-19.374-.838-5.451-2.636-10.148-5.343-13.963z" fill="#ffffff" opacity="1" data-original="#000000" class=""></path></g></svg>