<svg xmlns="http://www.w3.org/2000/svg" version="1.1" xmlns:xlink="http://www.w3.org/1999/xlink" width="512" height="512" x="0" y="0" viewBox="0 0 32 32" style="enable-background:new 0 0 512 512" xml:space="preserve" class=""><g><path d="M30.5 31h-4a.5.5 0 0 1-.5-.5v-13a.5.5 0 0 1 1 0V30h3V8.5a.5.5 0 1 1 1 0v22a.5.5 0 0 1-.5.5zM22 30h-3v-2.5a.5.5 0 0 0-1 0v3a.5.5 0 0 0 .5.5h4a.5.5 0 0 0 .5-.5v-7a.5.5 0 0 0-1 0z" fill="#e2252d" opacity="1" data-original="#000000" class=""></path><path d="M29.494 30h-28a.5.5 0 0 0 0 1h28a.5.5 0 0 0 0-1zM10.5 27.5a.5.5 0 0 1-.5-.5V16.5a.5.5 0 0 1 .5-.5h4a.5.5 0 0 1 .5.5v8a.5.5 0 0 1-1 0V17h-3v10a.5.5 0 0 1-.5.5zM2.5 29a.5.5 0 0 1-.5-.5v-8a.5.5 0 0 1 .5-.5h4a.5.5 0 0 1 .5.5V28a.5.5 0 0 1-1 0v-7H3v7.5a.5.5 0 0 1-.5.5zM18.5 20a.5.5 0 0 1-.5-.5v-7a.5.5 0 0 1 .5-.5h2a.5.5 0 1 1 0 1H19v6.5a.5.5 0 0 1-.5.5z" fill="#e2252d" opacity="1" data-original="#000000" class=""></path><path d="M3.5 31a.5.5 0 0 1 0-1C13.701 30 22 21.701 22 11.5V9h-1.5a.5.5 0 0 1-.435-.748l4-7c.18-.312.689-.312.869 0l4 7A.502.502 0 0 1 28.5 9H27v2.5a.5.5 0 0 1-1 0v-3a.5.5 0 0 1 .5-.5h1.139L24.5 2.508 21.361 8H22.5a.5.5 0 0 1 .5.5v3C23 22.252 14.252 31 3.5 31z" fill="#e2252d" opacity="1" data-original="#000000" class=""></path><circle cx="26.5" cy="13.5" r=".5" fill="#e2252d" opacity="1" data-original="#000000" class=""></circle></g></svg>