<svg width="30" height="30" viewBox="0 0 30 30" fill="none" xmlns="http://www.w3.org/2000/svg">
<path d="M6.5625 21.5625H0.9375M6.5625 21.5625V21.5625C7.41422 21.9275 8.12372 22.5603 8.58347 23.3648L8.625 23.4375M6.5625 21.5625V19.6875M0.9375 21.5625V0.9375H6.5625V2.8125M0.9375 21.5625V29.0625H8.625M8.625 23.4375V29.0625M8.625 23.4375H10.3125M8.625 29.0625H29.0625V23.4375H27.1875M10.3125 23.4375V25.5M10.3125 23.4375H12.1875M12.1875 23.4375V26.25M12.1875 23.4375H14.0625M14.0625 23.4375V25.5M14.0625 23.4375H15.9375M15.9375 23.4375V26.25M15.9375 23.4375H17.8125M17.8125 23.4375V25.5M17.8125 23.4375H19.6875M19.6875 23.4375V26.25M19.6875 23.4375H21.5625M21.5625 23.4375V25.5M21.5625 23.4375H23.4375M23.4375 23.4375V26.25M23.4375 23.4375H25.3125M25.3125 23.4375V25.5M25.3125 23.4375H27.1875M27.1875 23.4375V26.25M6.5625 19.6875H4.5M6.5625 19.6875V17.8125M6.5625 17.8125H3.5625M6.5625 17.8125V15.9375M6.5625 15.9375H4.5M6.5625 15.9375V14.0625M6.5625 14.0625H3.5625M6.5625 14.0625V12.1875M6.5625 12.1875H4.5M6.5625 12.1875V10.3125M6.5625 10.3125H3.5625M6.5625 10.3125V8.4375M6.5625 8.4375H4.5M6.5625 8.4375V6.5625M6.5625 6.5625H3.5625M6.5625 6.5625V4.6875M6.5625 4.6875H4.5M6.5625 4.6875V2.8125M6.5625 2.8125H3.5625" stroke="black" stroke-width="0.6" stroke-linecap="round" stroke-linejoin="round"/>
<path d="M26.0625 5.0625H27.6563M29.25 5.0625H27.6563M27.6563 5.0625V20.625M27.6563 20.625H26.25M27.6563 20.625H29.25M9.375 0.9375V2.4375M9.375 3.9375V2.4375M9.375 2.4375H25.3125V0.9375V3.9375M24 11.625H25.125L17.4375 4.875L9.75 11.625H24ZM24 11.625V20.625H19.6875M10.875 11.8125V20.625H15M19.6875 20.625V15H15V20.625M19.6875 20.625H15" stroke="black" stroke-width="0.6" stroke-linecap="round" stroke-linejoin="round"/>
<circle cx="4.68604" cy="25.3125" r="1.3875" stroke="black" stroke-width="0.6"/>
</svg>
