<svg width="31" height="30" viewBox="0 0 31 30" fill="none" xmlns="http://www.w3.org/2000/svg">
<path d="M6.65692 19.0492V19.0492C6.65692 18.7304 6.39845 18.4719 6.07962 18.4719H2.49902C1.39445 18.4719 0.499023 19.3674 0.499023 20.4719V24.7466C0.499023 25.8512 1.39445 26.7466 2.49902 26.7466H5.88718C6.3123 26.7466 6.65692 26.402 6.65692 25.9769V25.9769M6.65692 19.0492L6.96264 19.1002C7.5254 19.194 8.07097 19.3714 8.58126 19.6265V19.6265M6.65692 19.0492V25.9769M8.58126 19.6265V25.3996M8.58126 19.6265L11.1107 18.9942C11.4743 18.9033 11.8509 18.8759 12.2238 18.9132V18.9132C13.1243 19.0032 14.0026 19.2473 14.8205 19.6347L15.7819 20.0901C16.7498 20.5486 17.7767 20.8705 18.8331 21.0465L19.55 21.166L20.6849 21.2795C21.2105 21.3321 21.7316 21.4228 22.2441 21.5509V21.5509L22.4304 21.613C22.6739 21.6942 22.8591 21.8941 22.9214 22.1432L23.0067 22.4844C23.0112 22.5025 23.0073 22.5217 22.9961 22.5367V22.5367M8.58126 25.3996V25.3996C8.08162 25.7743 7.47391 25.9769 6.84935 25.9769H6.65692M8.58126 25.3996H10.2438C11.1753 25.3996 12.0939 25.6164 12.9271 26.033L15.3366 27.2378C15.9605 27.5497 16.6307 27.7591 17.3213 27.8577L17.4799 27.8804C17.577 27.8943 17.6749 27.9012 17.7729 27.9012V27.9012C18.5612 27.9012 19.338 27.7118 20.0378 27.3489L28.8997 22.7539C29.2015 22.5974 29.4461 22.3492 29.5981 22.0451V22.0451C29.6968 21.8477 29.7436 21.6261 29.7 21.4098C29.6703 21.2621 29.6246 21.0948 29.5566 20.9736V20.9736C29.3047 20.5246 28.6905 20.4996 28.2057 20.673L22.9961 22.5367M15.8938 22.8979L17.8181 23.4752L18.5917 23.6686C19.1004 23.7958 19.6227 23.8601 20.1471 23.8601H20.3571C20.7157 23.8601 21.073 23.8161 21.4209 23.7291L21.5547 23.6957C21.6292 23.6771 21.7014 23.6503 21.7701 23.616V23.616C22.2084 23.3969 22.5896 23.0787 22.8836 22.6867L22.9961 22.5367M14.1619 8.85023L18.8615 4.15055C19.5821 3.42994 20.7294 3.3664 21.5251 4.00302L25.9003 7.50319M9.73587 5.38641V5.38641C9.93497 5.68507 10.3575 5.72691 10.6113 5.4731L11.4678 4.61667M25.7079 17.5098V17.5098C26.7707 17.5098 27.6322 16.6482 27.6322 15.5854V10.967C27.6322 9.90422 26.7707 9.04266 25.7079 9.04266V9.04266C24.6451 9.04266 23.7836 9.90422 23.7836 10.967V15.5854C23.7836 16.6482 24.6451 17.5098 25.7079 17.5098ZM20.0311 17.5098V17.5098C21.0407 17.5098 21.8592 16.6913 21.8592 15.6816V9.33131C21.8592 8.32167 21.0407 7.50319 20.0311 7.50319V7.50319C19.0215 7.50319 18.203 8.32166 18.203 9.33131V15.6816C18.203 16.6913 19.0215 17.5098 20.0311 17.5098ZM14.3543 17.5098V17.5098C15.4171 17.5098 16.2786 16.6482 16.2786 15.5854V12.5065C16.2786 11.4437 15.4171 10.5821 14.3543 10.5821V10.5821C13.2915 10.5821 12.4299 11.4437 12.4299 12.5065V15.5854C12.4299 16.6482 13.2915 17.5098 14.3543 17.5098Z" stroke="black" stroke-width="0.6" stroke-linecap="round"/>
<circle cx="10.5071" cy="5.19408" r="2.39408" stroke="black" stroke-width="0.6"/>
</svg>
