<svg width="30" height="30" viewBox="0 0 30 30" fill="none" xmlns="http://www.w3.org/2000/svg">
<path d="M10.4985 0.9375H22.9985C23.5508 0.9375 23.9985 1.38522 23.9985 1.9375V3.5625M10.4985 0.9375V6.125C10.4985 6.67728 10.0508 7.125 9.49853 7.125H3.74853M10.4985 0.9375L3.74853 7.125M3.74853 16.6875V24.875C3.74853 25.4273 4.19625 25.875 4.74853 25.875H7.68603M3.74853 7.125V9M23.9985 3.5625V24.875C23.9985 25.4273 23.5508 25.875 22.9985 25.875H7.68603M23.9985 3.5625H26.7485C27.3008 3.5625 27.7485 4.01022 27.7485 4.5625V28.0625C27.7485 28.6148 27.3008 29.0625 26.7485 29.0625H8.68603C8.13375 29.0625 7.68603 28.6148 7.68603 28.0625V25.875M19.1235 12.1875H20.186C20.7383 12.1875 21.186 11.7398 21.186 11.1875V7.23908C21.186 6.93049 21.0436 6.63919 20.8 6.44973L18.3937 4.57819C18.0473 4.30879 17.5658 4.29667 17.2063 4.54831L14.4876 6.45142C14.2202 6.63855 14.061 6.94434 14.061 7.27066V11.1875C14.061 11.7398 14.5087 12.1875 15.061 12.1875H15.936M19.1235 12.1875C19.1235 12.1875 19.4985 9.1875 17.6235 9.1875C15.5589 9.1875 15.936 12.1875 15.936 12.1875M19.1235 12.1875H15.936M21.186 15H13.311M21.186 17.25H13.311M21.186 19.5H16.311M5.81103 11.9717L14.0418 20.0472C14.1768 20.1797 14.2715 20.3478 14.3149 20.5319L14.6285 21.8651C14.7987 22.5881 14.1491 23.2376 13.4261 23.0675L12.0879 22.7527C11.9069 22.7101 11.7414 22.6178 11.6099 22.4863L3.45313 14.3296M5.81103 11.9717L4.68071 10.8627C4.44888 10.6352 4.12103 10.5345 3.80149 10.5926L3.06965 10.7257C2.59416 10.8122 2.24853 11.2263 2.24853 11.7096V12.7108C2.24853 12.976 2.35389 13.2304 2.54143 13.4179L3.45313 14.3296M5.81103 11.9717L3.45313 14.3296" stroke="black" stroke-width="0.6" stroke-linecap="round"/>
</svg>
