<svg width="30" height="30" viewBox="0 0 30 30" fill="none" xmlns="http://www.w3.org/2000/svg">
<path d="M7.68896 9.12712L4.22019 12.4783C4.04046 12.6519 3.93896 12.8911 3.93896 13.141V13.141C3.93896 13.6499 4.35152 14.0625 4.86044 14.0625H4.88223C5.11962 14.0625 5.34827 13.973 5.52258 13.8118L7.68896 11.809M7.68896 9.12712V6.09375C7.68896 5.3171 8.31856 4.6875 9.09521 4.6875V4.6875C9.87186 4.6875 10.5015 5.3171 10.5015 6.09375V6.40996M7.68896 9.12712L10.5015 6.40996M10.5015 6.40996L13.6356 3.38206C14.4011 2.64251 15.6117 2.63208 16.3899 3.35834L25.9193 12.2525C26.1312 12.4502 26.2515 12.7271 26.2515 13.0169V13.1229C26.2515 13.6418 25.8308 14.0625 25.3119 14.0625V14.0625C25.0724 14.0625 24.8419 13.971 24.6675 13.8067L22.7502 12M7.68896 11.809L13.8183 6.14226C14.5901 5.42869 15.7826 5.43435 16.5476 6.15523L22.7502 12M7.68896 11.809V16.875M7.68896 16.875H4.87646M7.68896 16.875L11.4905 18.459C11.9541 18.6522 12.4411 18.7836 12.939 18.85V18.85M22.7502 12V21.2508M4.87646 16.875V16.875C4.87646 15.943 4.12094 15.1875 3.18896 15.1875H3.09521C2.11146 15.1875 1.31396 15.985 1.31396 16.9688V25.2188C1.31396 26.2025 2.11146 27 3.09521 27H3.18896C4.12094 27 4.87646 26.2445 4.87646 25.3125V25.3125M4.87646 16.875V25.3125M19.5015 21.75L19.3379 21.0958C19.2028 20.5555 18.853 20.0938 18.3695 19.8175L18.1424 19.6877C17.9255 19.5637 17.6866 19.483 17.439 19.45V19.45M10.5015 21.375L20.7201 22.0797C21.1464 22.1091 21.571 22.0012 21.9315 21.7718L26.2063 19.0515C27.1052 18.4795 28.3106 17.8091 29.064 18.5625V18.5625V18.5625C29.6933 19.1918 28.8992 20.2001 28.2452 20.8037L25.3463 23.479C23.6515 25.0432 21.5419 26.0858 19.27 26.4821L15.0346 27.2209C13.0447 27.568 10.9994 27.4072 9.08825 26.7534L4.87646 25.3125M12.939 18.85V15.5C12.939 14.3954 13.8344 13.5 14.939 13.5H15.439C16.5435 13.5 17.439 14.3954 17.439 15.5V19.45M12.939 18.85L17.439 19.45" stroke="black" stroke-width="0.6" stroke-linecap="round"/>
</svg>
